{
    "asset" : {
        "generator" : "Khronos Blender glTF 2.0 I/O",
        "version" : "2.0"
    },
    "scene" : 0,
    "scenes" : [
        {
            "name" : "Scene",
            "nodes" : [
                0
            ]
        }
    ],
    "nodes" : [
        {
            "mesh" : 0,
            "name" : "obj_0.004",
            "rotation" : [
                -0.7071065902709961,
                0,
                0,
                0.7071069478988647
            ]
        }
    ],
    "materials" : [
        {
            "name" : "obj_0",
            "pbrMetallicRoughness" : {
                "baseColorTexture" : {
                    "index" : 0,
                    "texCoord" : 0
                },
                "metallicFactor" : 0,
                "roughnessFactor" : 0.9066479802131653
            }
        }
    ],
    "meshes" : [
        {
            "name" : "obj_0.004",
            "primitives" : [
                {
                    "attributes" : {
                        "POSITION" : 0,
                        "NORMAL" : 1,
                        "TEXCOORD_0" : 2
                    },
                    "indices" : 3,
                    "material" : 0
                }
            ]
        }
    ],
    "textures" : [
        {
            "source" : 0
        }
    ],
    "images" : [
        {
            "mimeType" : "image/png",
            "name" : "Image_0",
            "uri" : "Image_0.png"
        }
    ],
    "accessors" : [
        {
            "bufferView" : 0,
            "componentType" : 5126,
            "count" : 187,
            "max" : [
                -0.40184399485588074,
                3.5377330780029297,
                2.4669299125671387
            ],
            "min" : [
                -2.7445900440216064,
                1.4961210489273071,
                0.979548990726471
            ],
            "type" : "VEC3"
        },
        {
            "bufferView" : 1,
            "componentType" : 5126,
            "count" : 187,
            "type" : "VEC3"
        },
        {
            "bufferView" : 2,
            "componentType" : 5126,
            "count" : 187,
            "type" : "VEC2"
        },
        {
            "bufferView" : 3,
            "componentType" : 5123,
            "count" : 189,
            "type" : "SCALAR"
        }
    ],
    "bufferViews" : [
        {
            "buffer" : 0,
            "byteLength" : 2244,
            "byteOffset" : 0
        },
        {
            "buffer" : 0,
            "byteLength" : 2244,
            "byteOffset" : 2244
        },
        {
            "buffer" : 0,
            "byteLength" : 1496,
            "byteOffset" : 4488
        },
        {
            "buffer" : 0,
            "byteLength" : 378,
            "byteOffset" : 5984
        }
    ],
    "buffers" : [
        {
            "byteLength" : 6364,
            "uri" : "model.bin"
        }
    ]
}
