{
    "asset" : {
        "generator" : "Khronos Blender glTF 2.0 I/O",
        "version" : "2.0"
    },
    "scene" : 0,
    "scenes" : [
        {
            "name" : "Scene",
            "nodes" : [
                0
            ]
        }
    ],
    "nodes" : [
        {
            "mesh" : 0,
            "name" : "obj_0.002",
            "rotation" : [
                1,
                0,
                0,
                -1.3435885648505064e-07
            ]
        }
    ],
    "materials" : [
        {
            "name" : "obj_0",
            "pbrMetallicRoughness" : {
                "baseColorTexture" : {
                    "index" : 0,
                    "texCoord" : 0
                },
                "metallicFactor" : 0,
                "roughnessFactor" : 0.9066479802131653
            }
        }
    ],
    "meshes" : [
        {
            "name" : "obj_0.003",
            "primitives" : [
                {
                    "attributes" : {
                        "POSITION" : 0,
                        "NORMAL" : 1,
                        "TEXCOORD_0" : 2
                    },
                    "indices" : 3,
                    "material" : 0
                }
            ]
        }
    ],
    "textures" : [
        {
            "source" : 0
        }
    ],
    "images" : [
        {
            "mimeType" : "image/jpeg",
            "name" : "tile_0_0_0_tex_tex0_refined.jpg",
            "uri" : "tile_0_0_0_tex_tex0_refined.jpg"
        }
    ],
    "accessors" : [
        {
            "bufferView" : 0,
            "componentType" : 5126,
            "count" : 2485,
            "max" : [
                3.380121946334839,
                -0.4244000017642975,
                4.780837059020996
            ],
            "min" : [
                -0.6362509727478027,
                -2.468518018722534,
                0.5373520255088806
            ],
            "type" : "VEC3"
        },
        {
            "bufferView" : 1,
            "componentType" : 5126,
            "count" : 2485,
            "type" : "VEC3"
        },
        {
            "bufferView" : 2,
            "componentType" : 5126,
            "count" : 2485,
            "type" : "VEC2"
        },
        {
            "bufferView" : 3,
            "componentType" : 5123,
            "count" : 2568,
            "type" : "SCALAR"
        }
    ],
    "bufferViews" : [
        {
            "buffer" : 0,
            "byteLength" : 29820,
            "byteOffset" : 0
        },
        {
            "buffer" : 0,
            "byteLength" : 29820,
            "byteOffset" : 29820
        },
        {
            "buffer" : 0,
            "byteLength" : 19880,
            "byteOffset" : 59640
        },
        {
            "buffer" : 0,
            "byteLength" : 5136,
            "byteOffset" : 79520
        }
    ],
    "buffers" : [
        {
            "byteLength" : 84656,
            "uri" : "model.bin"
        }
    ]
}
