{
    "asset" : {
        "generator" : "Khronos Blender glTF 2.0 I/O",
        "version" : "2.0"
    },
    "scene" : 0,
    "scenes" : [
        {
            "name" : "Scene",
            "nodes" : [
                0
            ]
        }
    ],
    "nodes" : [
        {
            "mesh" : 0,
            "name" : "House"
        }
    ],
    "materials" : [
        {
            "name" : "blinn1SG",
            "normalTexture" : {
                "index" : 0,
                "texCoord" : 0
            },
            "pbrMetallicRoughness" : {
                "baseColorTexture" : {
                    "index" : 1,
                    "texCoord" : 0
                },
                "metallicFactor" : 0,
                "roughnessFactor" : 1
            }
        }
    ],
    "meshes" : [
        {
            "name" : "House",
            "primitives" : [
                {
                    "attributes" : {
                        "POSITION" : 0,
                        "NORMAL" : 1,
                        "TEXCOORD_0" : 2
                    },
                    "indices" : 3,
                    "material" : 0
                }
            ]
        }
    ],
    "textures" : [
        {
            "source" : 0
        },
        {
            "source" : 1
        }
    ],
    "images" : [
        {
            "mimeType" : "image/jpeg",
            "name" : "house_normal",
            "uri" : "house_normal.jpg"
        },
        {
            "mimeType" : "image/jpeg",
            "name" : "house_diffuse",
            "uri" : "house_diffuse.jpg"
        }
    ],
    "accessors" : [
        {
            "bufferView" : 0,
            "componentType" : 5126,
            "count" : 1899,
            "max" : [
                669.4317016601562,
                620.336181640625,
                497.8766174316406
            ],
            "min" : [
                -563.0122680664062,
                -0.38916200399398804,
                -395.7845153808594
            ],
            "type" : "VEC3"
        },
        {
            "bufferView" : 1,
            "componentType" : 5126,
            "count" : 1899,
            "type" : "VEC3"
        },
        {
            "bufferView" : 2,
            "componentType" : 5126,
            "count" : 1899,
            "type" : "VEC2"
        },
        {
            "bufferView" : 3,
            "componentType" : 5123,
            "count" : 3225,
            "type" : "SCALAR"
        }
    ],
    "bufferViews" : [
        {
            "buffer" : 0,
            "byteLength" : 22788,
            "byteOffset" : 0
        },
        {
            "buffer" : 0,
            "byteLength" : 22788,
            "byteOffset" : 22788
        },
        {
            "buffer" : 0,
            "byteLength" : 15192,
            "byteOffset" : 45576
        },
        {
            "buffer" : 0,
            "byteLength" : 6450,
            "byteOffset" : 60768
        }
    ],
    "buffers" : [
        {
            "byteLength" : 67220,
            "uri" : "model.bin"
        }
    ]
}
