{
    "asset" : {
        "copyright" : "generated by blender-3d-tiler",
        "generator" : "Khronos Blender glTF 2.0 I/O",
        "version" : "2.0"
    },
    "scene" : 0,
    "scenes" : [
        {
            "name" : "Scene",
            "nodes" : [
                0,
                1
            ]
        }
    ],
    "nodes" : [
        {
            "mesh" : 0,
            "name" : "obj_0",
            "rotation" : [
                0.7071068286895752,
                0,
                0,
                0.7071067094802856
            ]
        },
        {
            "mesh" : 1,
            "name" : "obj_0.001",
            "rotation" : [
                0.7071068286895752,
                0,
                0,
                0.7071067094802856
            ],
            "translation" : [
                3.343050956726074,
                0.3433471918106079,
                1.3372023105621338
            ]
        }
    ],
    "materials" : [
        {
            "name" : "obj_0",
            "pbrMetallicRoughness" : {
                "baseColorTexture" : {
                    "index" : 0,
                    "texCoord" : 0
                },
                "metallicFactor" : 0,
                "roughnessFactor" : 0.9066479802131653
            }
        }
    ],
    "meshes" : [
        {
            "name" : "obj_0",
            "primitives" : [
                {
                    "attributes" : {
                        "POSITION" : 0,
                        "NORMAL" : 1,
                        "TEXCOORD_0" : 2
                    },
                    "indices" : 3,
                    "material" : 0
                }
            ]
        },
        {
            "name" : "obj_0.001",
            "primitives" : [
                {
                    "attributes" : {
                        "POSITION" : 4,
                        "NORMAL" : 5,
                        "TEXCOORD_0" : 6
                    },
                    "indices" : 3,
                    "material" : 0
                }
            ]
        }
    ],
    "textures" : [
        {
            "source" : 0
        }
    ],
    "images" : [
        {
            "mimeType" : "image/jpeg",
            "name" : "tile_0_0_0_tex_tex0.jpg",
            "uri" : "tile_0_0_0_tex_tex0.jpg"
        }
    ],
    "accessors" : [
        {
            "bufferView" : 0,
            "componentType" : 5126,
            "count" : 4443,
            "max" : [
                3.380121946334839,
                3.793303966522217,
                0.6985570192337036
            ],
            "min" : [
                -4.183773994445801,
                -4.780837059020996,
                -2.468518018722534
            ],
            "type" : "VEC3"
        },
        {
            "bufferView" : 1,
            "componentType" : 5126,
            "count" : 4443,
            "type" : "VEC3"
        },
        {
            "bufferView" : 2,
            "componentType" : 5126,
            "count" : 4443,
            "type" : "VEC2"
        },
        {
            "bufferView" : 3,
            "componentType" : 5123,
            "count" : 4596,
            "type" : "SCALAR"
        },
        {
            "bufferView" : 4,
            "componentType" : 5126,
            "count" : 4443,
            "max" : [
                3.380121946334839,
                3.793303966522217,
                0.6985570192337036
            ],
            "min" : [
                -4.183773994445801,
                -4.780837059020996,
                -2.468518018722534
            ],
            "type" : "VEC3"
        },
        {
            "bufferView" : 5,
            "componentType" : 5126,
            "count" : 4443,
            "type" : "VEC3"
        },
        {
            "bufferView" : 6,
            "componentType" : 5126,
            "count" : 4443,
            "type" : "VEC2"
        }
    ],
    "bufferViews" : [
        {
            "buffer" : 0,
            "byteLength" : 53316,
            "byteOffset" : 0
        },
        {
            "buffer" : 0,
            "byteLength" : 53316,
            "byteOffset" : 53316
        },
        {
            "buffer" : 0,
            "byteLength" : 35544,
            "byteOffset" : 106632
        },
        {
            "buffer" : 0,
            "byteLength" : 9192,
            "byteOffset" : 142176
        },
        {
            "buffer" : 0,
            "byteLength" : 53316,
            "byteOffset" : 151368
        },
        {
            "buffer" : 0,
            "byteLength" : 53316,
            "byteOffset" : 204684
        },
        {
            "buffer" : 0,
            "byteLength" : 35544,
            "byteOffset" : 258000
        }
    ],
    "buffers" : [
        {
            "byteLength" : 293544,
            "uri" : "model.bin"
        }
    ]
}
