{
    "asset" : {
        "generator" : "Khronos Blender glTF 2.0 I/O",
        "version" : "2.0"
    },
    "scene" : 0,
    "scenes" : [
        {
            "name" : "Scene",
            "nodes" : [
                0
            ]
        }
    ],
    "nodes" : [
        {
            "mesh" : 0,
            "name" : "3TESTlevel_5_0_0"
        }
    ],
    "materials" : [
        {
            "name" : "material_1",
            "pbrMetallicRoughness" : {
                "baseColorTexture" : {
                    "index" : 0,
                    "texCoord" : 0
                },
                "metallicFactor" : 0,
                "roughnessFactor" : 1
            }
        },
        {
            "name" : "material_0",
            "pbrMetallicRoughness" : {
                "baseColorTexture" : {
                    "index" : 1,
                    "texCoord" : 0
                },
                "metallicFactor" : 0,
                "roughnessFactor" : 1
            }
        }
    ],
    "meshes" : [
        {
            "name" : "3TESTlevel_5_0_0",
            "primitives" : [
                {
                    "attributes" : {
                        "POSITION" : 0,
                        "NORMAL" : 1,
                        "TEXCOORD_0" : 2
                    },
                    "indices" : 3,
                    "material" : 0
                },
                {
                    "attributes" : {
                        "POSITION" : 4,
                        "NORMAL" : 5,
                        "TEXCOORD_0" : 6
                    },
                    "indices" : 7,
                    "material" : 0
                },
                {
                    "attributes" : {
                        "POSITION" : 8,
                        "NORMAL" : 9,
                        "TEXCOORD_0" : 10
                    },
                    "indices" : 11,
                    "material" : 0
                },
                {
                    "attributes" : {
                        "POSITION" : 12,
                        "NORMAL" : 13,
                        "TEXCOORD_0" : 14
                    },
                    "indices" : 15,
                    "material" : 0
                },
                {
                    "attributes" : {
                        "POSITION" : 16,
                        "NORMAL" : 17,
                        "TEXCOORD_0" : 18
                    },
                    "indices" : 19,
                    "material" : 1
                },
                {
                    "attributes" : {
                        "POSITION" : 20,
                        "NORMAL" : 21,
                        "TEXCOORD_0" : 22
                    },
                    "indices" : 23,
                    "material" : 1
                },
                {
                    "attributes" : {
                        "POSITION" : 24,
                        "NORMAL" : 25,
                        "TEXCOORD_0" : 26
                    },
                    "indices" : 27,
                    "material" : 1
                }
            ]
        }
    ],
    "textures" : [
        {
            "source" : 0
        },
        {
            "source" : 1
        }
    ],
    "images" : [
        {
            "mimeType" : "image/jpeg",
            "name" : "level_5_0_0_tex_1",
            "uri" : "level_5_0_0_tex_1.jpg"
        },
        {
            "mimeType" : "image/jpeg",
            "name" : "level_5_0_0_tex_0",
            "uri" : "level_5_0_0_tex_0.jpg"
        }
    ],
    "accessors" : [
        {
            "bufferView" : 0,
            "componentType" : 5126,
            "count" : 65535,
            "max" : [
                13.3466796875,
                20.986032485961914,
                204.9007110595703
            ],
            "min" : [
                -33.412628173828125,
                -4.780381202697754,
                -129.82179260253906
            ],
            "type" : "VEC3"
        },
        {
            "bufferView" : 1,
            "componentType" : 5126,
            "count" : 65535,
            "type" : "VEC3"
        },
        {
            "bufferView" : 2,
            "componentType" : 5126,
            "count" : 65535,
            "type" : "VEC2"
        },
        {
            "bufferView" : 3,
            "componentType" : 5123,
            "count" : 161433,
            "type" : "SCALAR"
        },
        {
            "bufferView" : 4,
            "componentType" : 5126,
            "count" : 65535,
            "max" : [
                36.72633361816406,
                17.905040740966797,
                186.6234130859375
            ],
            "min" : [
                -10.03298568725586,
                -5.920382022857666,
                -153.39126586914062
            ],
            "type" : "VEC3"
        },
        {
            "bufferView" : 5,
            "componentType" : 5126,
            "count" : 65535,
            "type" : "VEC3"
        },
        {
            "bufferView" : 6,
            "componentType" : 5126,
            "count" : 65535,
            "type" : "VEC2"
        },
        {
            "bufferView" : 7,
            "componentType" : 5123,
            "count" : 162600,
            "type" : "SCALAR"
        },
        {
            "bufferView" : 8,
            "componentType" : 5126,
            "count" : 63566,
            "max" : [
                108.6665267944336,
                13.833719253540039,
                131.80374145507812
            ],
            "min" : [
                13.3466796875,
                -10.6331205368042,
                -188.4779510498047
            ],
            "type" : "VEC3"
        },
        {
            "bufferView" : 9,
            "componentType" : 5126,
            "count" : 63566,
            "type" : "VEC3"
        },
        {
            "bufferView" : 10,
            "componentType" : 5126,
            "count" : 63566,
            "type" : "VEC2"
        },
        {
            "bufferView" : 11,
            "componentType" : 5123,
            "count" : 162312,
            "type" : "SCALAR"
        },
        {
            "bufferView" : 12,
            "componentType" : 5126,
            "count" : 13,
            "max" : [
                35.93857192993164,
                8.186248779296875,
                73.15068054199219
            ],
            "min" : [
                2.6736629009246826,
                5.0778961181640625,
                -60.54804229736328
            ],
            "type" : "VEC3"
        },
        {
            "bufferView" : 13,
            "componentType" : 5126,
            "count" : 13,
            "type" : "VEC3"
        },
        {
            "bufferView" : 14,
            "componentType" : 5126,
            "count" : 13,
            "type" : "VEC2"
        },
        {
            "bufferView" : 15,
            "componentType" : 5123,
            "count" : 27,
            "type" : "SCALAR"
        },
        {
            "bufferView" : 16,
            "componentType" : 5126,
            "count" : 65535,
            "max" : [
                -33.412628173828125,
                15.000457763671875,
                198.50985717773438
            ],
            "min" : [
                -102.67847442626953,
                -2.790318012237549,
                -75.51588439941406
            ],
            "type" : "VEC3"
        },
        {
            "bufferView" : 17,
            "componentType" : 5126,
            "count" : 65535,
            "type" : "VEC3"
        },
        {
            "bufferView" : 18,
            "componentType" : 5126,
            "count" : 65535,
            "type" : "VEC2"
        },
        {
            "bufferView" : 19,
            "componentType" : 5123,
            "count" : 164361,
            "type" : "SCALAR"
        },
        {
            "bufferView" : 20,
            "componentType" : 5126,
            "count" : 3448,
            "max" : [
                -10.032973289489746,
                9.254846572875977,
                200.51393127441406
            ],
            "min" : [
                -56.79228210449219,
                -3.3717119693756104,
                -94.98507690429688
            ],
            "type" : "VEC3"
        },
        {
            "bufferView" : 21,
            "componentType" : 5126,
            "count" : 3448,
            "type" : "VEC3"
        },
        {
            "bufferView" : 22,
            "componentType" : 5126,
            "count" : 3448,
            "type" : "VEC2"
        },
        {
            "bufferView" : 23,
            "componentType" : 5123,
            "count" : 8547,
            "type" : "SCALAR"
        },
        {
            "bufferView" : 24,
            "componentType" : 5126,
            "count" : 10,
            "max" : [
                -36.987281799316406,
                6.728213787078857,
                -56.04013442993164
            ],
            "min" : [
                -37.64344024658203,
                4.494320869445801,
                -57.79030990600586
            ],
            "type" : "VEC3"
        },
        {
            "bufferView" : 25,
            "componentType" : 5126,
            "count" : 10,
            "type" : "VEC3"
        },
        {
            "bufferView" : 26,
            "componentType" : 5126,
            "count" : 10,
            "type" : "VEC2"
        },
        {
            "bufferView" : 27,
            "componentType" : 5123,
            "count" : 21,
            "type" : "SCALAR"
        }
    ],
    "bufferViews" : [
        {
            "buffer" : 0,
            "byteLength" : 786420,
            "byteOffset" : 0
        },
        {
            "buffer" : 0,
            "byteLength" : 786420,
            "byteOffset" : 786420
        },
        {
            "buffer" : 0,
            "byteLength" : 524280,
            "byteOffset" : 1572840
        },
        {
            "buffer" : 0,
            "byteLength" : 322866,
            "byteOffset" : 2097120
        },
        {
            "buffer" : 0,
            "byteLength" : 786420,
            "byteOffset" : 2419988
        },
        {
            "buffer" : 0,
            "byteLength" : 786420,
            "byteOffset" : 3206408
        },
        {
            "buffer" : 0,
            "byteLength" : 524280,
            "byteOffset" : 3992828
        },
        {
            "buffer" : 0,
            "byteLength" : 325200,
            "byteOffset" : 4517108
        },
        {
            "buffer" : 0,
            "byteLength" : 762792,
            "byteOffset" : 4842308
        },
        {
            "buffer" : 0,
            "byteLength" : 762792,
            "byteOffset" : 5605100
        },
        {
            "buffer" : 0,
            "byteLength" : 508528,
            "byteOffset" : 6367892
        },
        {
            "buffer" : 0,
            "byteLength" : 324624,
            "byteOffset" : 6876420
        },
        {
            "buffer" : 0,
            "byteLength" : 156,
            "byteOffset" : 7201044
        },
        {
            "buffer" : 0,
            "byteLength" : 156,
            "byteOffset" : 7201200
        },
        {
            "buffer" : 0,
            "byteLength" : 104,
            "byteOffset" : 7201356
        },
        {
            "buffer" : 0,
            "byteLength" : 54,
            "byteOffset" : 7201460
        },
        {
            "buffer" : 0,
            "byteLength" : 786420,
            "byteOffset" : 7201516
        },
        {
            "buffer" : 0,
            "byteLength" : 786420,
            "byteOffset" : 7987936
        },
        {
            "buffer" : 0,
            "byteLength" : 524280,
            "byteOffset" : 8774356
        },
        {
            "buffer" : 0,
            "byteLength" : 328722,
            "byteOffset" : 9298636
        },
        {
            "buffer" : 0,
            "byteLength" : 41376,
            "byteOffset" : 9627360
        },
        {
            "buffer" : 0,
            "byteLength" : 41376,
            "byteOffset" : 9668736
        },
        {
            "buffer" : 0,
            "byteLength" : 27584,
            "byteOffset" : 9710112
        },
        {
            "buffer" : 0,
            "byteLength" : 17094,
            "byteOffset" : 9737696
        },
        {
            "buffer" : 0,
            "byteLength" : 120,
            "byteOffset" : 9754792
        },
        {
            "buffer" : 0,
            "byteLength" : 120,
            "byteOffset" : 9754912
        },
        {
            "buffer" : 0,
            "byteLength" : 80,
            "byteOffset" : 9755032
        },
        {
            "buffer" : 0,
            "byteLength" : 42,
            "byteOffset" : 9755112
        }
    ],
    "buffers" : [
        {
            "byteLength" : 9755156,
            "uri" : "model.bin"
        }
    ]
}
