{
    "asset" : {
        "generator" : "Khronos Blender glTF 2.0 I/O",
        "version" : "2.0"
    },
    "scene" : 0,
    "scenes" : [
        {
            "name" : "Scene",
            "nodes" : [
                0
            ]
        }
    ],
    "nodes" : [
        {
            "mesh" : 0,
            "name" : "obj_0.001",
            "rotation" : [
                -0.7071065902709961,
                0,
                0,
                0.7071069478988647
            ]
        }
    ],
    "materials" : [
        {
            "name" : "obj_0",
            "pbrMetallicRoughness" : {
                "baseColorTexture" : {
                    "index" : 0,
                    "texCoord" : 0
                },
                "metallicFactor" : 0,
                "roughnessFactor" : 0.9066479802131653
            }
        }
    ],
    "meshes" : [
        {
            "name" : "obj_0.001",
            "primitives" : [
                {
                    "attributes" : {
                        "POSITION" : 0,
                        "NORMAL" : 1,
                        "TEXCOORD_0" : 2
                    },
                    "indices" : 3,
                    "material" : 0
                }
            ]
        }
    ],
    "textures" : [
        {
            "source" : 0
        }
    ],
    "images" : [
        {
            "mimeType" : "image/png",
            "name" : "Image_0",
            "uri" : "Image_0.png"
        }
    ],
    "accessors" : [
        {
            "bufferView" : 0,
            "componentType" : 5126,
            "count" : 785,
            "max" : [
                3.3382580280303955,
                4.63315486907959,
                1.2970579862594604
            ],
            "min" : [
                -1.2702449560165405,
                -2.886833906173706,
                -0.666441023349762
            ],
            "type" : "VEC3"
        },
        {
            "bufferView" : 1,
            "componentType" : 5126,
            "count" : 785,
            "type" : "VEC3"
        },
        {
            "bufferView" : 2,
            "componentType" : 5126,
            "count" : 785,
            "type" : "VEC2"
        },
        {
            "bufferView" : 3,
            "componentType" : 5123,
            "count" : 789,
            "type" : "SCALAR"
        }
    ],
    "bufferViews" : [
        {
            "buffer" : 0,
            "byteLength" : 9420,
            "byteOffset" : 0
        },
        {
            "buffer" : 0,
            "byteLength" : 9420,
            "byteOffset" : 9420
        },
        {
            "buffer" : 0,
            "byteLength" : 6280,
            "byteOffset" : 18840
        },
        {
            "buffer" : 0,
            "byteLength" : 1578,
            "byteOffset" : 25120
        }
    ],
    "buffers" : [
        {
            "byteLength" : 26700,
            "uri" : "model.bin"
        }
    ]
}
